HIERARCHY
ROOT bip01_pelvis
{
	OFFSET -0.141780 111.560104 -53.453648
	CHANNELS 6 Xposition Yposition Zposition Xrotation Yrotation Zrotation
	JOINT bip01_l_thigh
	{
		OFFSET -12.581326 0.000023 0.838757
		CHANNELS 3 Xrotation Yrotation Zrotation
		JOINT bip01_l_calf
		{
			OFFSET -5.405050 -43.060066 12.568863
			CHANNELS 3 Xrotation Yrotation Zrotation
			JOINT bip01_l_foot
			{
				OFFSET -6.378141 -25.639313 -28.000755
				CHANNELS 3 Xrotation Yrotation Zrotation
				JOINT bip01_l_toe0
				{
					OFFSET -1.312191 -43.345943 -5.410645
					CHANNELS 3 Xrotation Yrotation Zrotation
					End Site
					{
						OFFSET 0.668312 -0.011212 0.027710
					}
				}
			}
		}
	}
	JOINT bip01_r_thigh
	{
		OFFSET 12.581315 -0.000053 -0.838764
		CHANNELS 3 Xrotation Yrotation Zrotation
		JOINT bip01_r_calf
		{
			OFFSET 7.025425 -43.060097 11.740181
			CHANNELS 3 Xrotation Yrotation Zrotation
			JOINT bip01_r_foot
			{
				OFFSET 2.604660 -25.639347 -28.599602
				CHANNELS 3 Xrotation Yrotation Zrotation
				JOINT bip01_r_toe0
				{
					OFFSET 0.582125 -43.345810 -5.536972
					CHANNELS 3 Xrotation Yrotation Zrotation
					End Site
					{
						OFFSET 0.658720 0.011207 -0.116180
					}
				}
			}
		}
	}
	JOINT bip01_spine
	{
		OFFSET 1.130847 -10.257637 16.963192
		CHANNELS 3 Xrotation Yrotation Zrotation
		JOINT bip01_spine1
		{
			OFFSET 2.125925 -0.408882 31.891911
			CHANNELS 3 Xrotation Yrotation Zrotation
			JOINT bip01_spine2
			{
				OFFSET 3.104555 -1.436646 46.949230
				CHANNELS 3 Xrotation Yrotation Zrotation
				JOINT bip01_neck
				{
					OFFSET 1.831697 12.621635 29.209831
					CHANNELS 3 Xrotation Yrotation Zrotation
					JOINT bip01_head
					{
						OFFSET 0.933028 14.642593 15.308128
						CHANNELS 3 Xrotation Yrotation Zrotation
						JOINT bip01_ponytail1
						{
							OFFSET 12.881245 30.917107 3.869919
							CHANNELS 3 Xrotation Yrotation Zrotation
							End Site
							{
								OFFSET -0.556711 0.315430 0.195229
							}
						}
						JOINT bip01_ponytail2
						{
							OFFSET -12.308470 31.163292 5.588448
							CHANNELS 3 Xrotation Yrotation Zrotation
							End Site
							{
								OFFSET -0.577699 -0.315430 -0.119598
							}
						}
						JOINT bone01
						{
							OFFSET -0.035753 10.693596 0.910164
							CHANNELS 3 Xrotation Yrotation Zrotation
							End Site
							{
								OFFSET -0.667642 0.000000 0.042305
							}
						}
						JOINT bone03
						{
							OFFSET -2.859410 10.011330 9.974838
							CHANNELS 3 Xrotation Yrotation Zrotation
							End Site
							{
								OFFSET 0.042301 0.000000 0.667641
							}
						}
						JOINT bone05
						{
							OFFSET 4.144515 10.011345 9.531006
							CHANNELS 3 Xrotation Yrotation Zrotation
							End Site
							{
								OFFSET 0.042301 0.000000 0.667641
							}
						}
					}
					JOINT bip01_l_clavicle
					{
						OFFSET -6.817371 -1.737137 -4.124603
						CHANNELS 3 Xrotation Yrotation Zrotation
						JOINT bip01_l_upperarm
						{
							OFFSET -13.915021 0.119522 7.203735
							CHANNELS 3 Xrotation Yrotation Zrotation
							JOINT bip01_l_forearm
							{
								OFFSET 0.900768 -49.360191 -24.691143
								CHANNELS 3 Xrotation Yrotation Zrotation
								JOINT bip01_l_hand
								{
									OFFSET 5.453267 -54.192162 0.261513
									CHANNELS 3 Xrotation Yrotation Zrotation
									End Site
									{
										OFFSET -0.048247 0.019447 -0.666954
									}
								}
							}
						}
					}
					JOINT bip01_r_clavicle
					{
						OFFSET 6.291911 -1.668388 -4.989365
						CHANNELS 3 Xrotation Yrotation Zrotation
						JOINT bip01_r_upperarm
						{
							OFFSET 14.738678 0.269737 5.313599
							CHANNELS 3 Xrotation Yrotation Zrotation
							JOINT bip01_r_forearm
							{
								OFFSET -4.170362 -49.360199 -24.353104
								CHANNELS 3 Xrotation Yrotation Zrotation
								JOINT bip01_r_hand
								{
									OFFSET -5.370342 -54.192158 0.983074
									CHANNELS 3 Xrotation Yrotation Zrotation
									End Site
									{
										OFFSET 0.040714 -0.019448 0.667458
									}
								}
							}
						}
					}
				}
			}
		}
	}
	JOINT bip01_tail
	{
		OFFSET -1.140240 5.694984 -17.420544
		CHANNELS 3 Xrotation Yrotation Zrotation
		JOINT bip01_tail1
		{
			OFFSET -0.799711 -16.655739 -11.995483
			CHANNELS 3 Xrotation Yrotation Zrotation
			JOINT bip01_tail2
			{
				OFFSET -0.560408 -49.655807 -8.404999
				CHANNELS 3 Xrotation Yrotation Zrotation
				End Site
				{
					OFFSET -0.667499 0.000004 0.044495
				}
			}
		}
	}
}
MOTION
Frames: 10
Frame Time: 0.041667
-0.403715 114.874435 -56.126114 2.631717 3.035717 -0.031158 2.231442 -17.373093 6.633177 -6.784687 0.988913 0.662977 -10.068469 3.198764 -1.868390 12.248916 0.849495 -1.933138 3.839308 11.401169 -3.214632 -6.604699 -1.012864 0.234605 -3.609849 -12.931194 1.784069 11.296719 2.438452 -5.059351 6.120846 -4.196279 0.335193 -12.447478 -1.927709 -2.117646 1.733750 -5.182210 0.156628 -24.884136 2.058096 0.334570 25.433335 1.722856 3.819789 -21.554424 5.152373 -14.086867 -4.964441 1.759103 16.347653 3.979010 -0.127161 -0.420922 0.004078 0.003789 -0.004772 -0.002726 0.000245 0.003160 33.608714 -45.326491 11.920190 6.736347 49.816582 -14.071674 -7.788066 -0.862058 1.215217 6.579859 -1.799881 -0.561464 32.008261 27.919057 -13.831668 6.590552 -23.530265 19.795058 -15.706413 1.590680 -0.231949 8.374207 -0.793379 0.495653 2.253150 -4.692626 7.354418 0.595953 0.537675 -1.807707 -16.888194 -0.027968 -0.731543 
-0.303132 114.514030 -55.284389 3.138044 2.686327 -0.027596 1.794009 -17.197906 6.493455 -6.615481 0.965250 0.645052 -10.373705 3.195551 -1.625003 12.317865 1.002611 -2.011070 3.632044 11.704511 -3.266182 -6.608149 -1.013394 0.234698 -3.912415 -12.894077 1.658010 11.298146 2.455038 -4.976426 6.123112 -3.840861 0.293784 -12.086278 -1.942195 -2.129697 2.216976 -4.928732 0.120970 -22.322774 2.273511 -0.295651 24.389465 1.585518 4.560069 -21.715864 5.377519 -13.998519 -5.908115 1.649014 16.195968 3.757679 -0.124793 -0.403464 0.004076 0.003790 -0.004767 -0.002729 0.000245 0.003161 31.615948 -45.220111 12.719530 12.299115 48.974649 -19.499722 -22.127016 -2.851875 3.109037 25.826523 -0.080474 -2.722480 29.144506 28.007998 -13.190460 8.090652 -23.484338 20.430896 -20.466561 2.078765 -0.215484 10.453823 -1.002468 0.748311 2.231394 -4.348921 7.342838 0.606323 0.534294 -1.809828 -17.732279 -0.014887 -0.683229 
-0.303132 114.514030 -55.073967 3.657583 2.343505 -0.042697 1.383367 -17.019194 6.369985 -6.475059 0.945575 0.630228 -10.686966 3.180642 -1.380974 12.386919 1.155694 -2.089199 3.439412 12.016438 -3.307852 -6.631914 -1.017087 0.235331 -4.217893 -12.861245 1.529786 11.298881 2.474135 -4.900675 6.139515 -3.468270 0.247602 -11.720980 -1.964585 -2.135667 2.686618 -4.682323 0.084636 -19.505154 2.458086 -0.973722 23.406488 1.514386 5.318980 -21.922961 5.519955 -13.874146 -6.940710 1.635760 16.026965 3.154025 -0.121582 -0.364847 0.004077 0.003789 -0.004769 -0.002729 0.000245 0.003163 29.397957 -45.120646 13.560289 14.974474 48.380060 -22.227297 -33.112870 -4.663187 4.195800 45.149835 0.854528 -5.180058 26.010858 28.076768 -12.513071 9.419197 -23.459528 20.994314 -24.926200 2.533172 -0.163341 12.367856 -1.219209 1.016274 2.166766 -4.007734 7.340763 0.635284 0.535090 -1.815065 -18.558640 -0.001714 -0.643790 
-0.236078 114.243729 -55.073959 4.189867 1.989614 -0.050016 0.991516 -16.828799 6.267741 -6.361774 0.929673 0.618305 -11.004306 3.161506 -1.135681 12.457289 1.307769 -2.171067 3.257692 12.331488 -3.342491 -6.671398 -1.023217 0.236381 -4.533206 -12.832163 1.402232 11.303554 2.490001 -4.829076 6.166019 -3.074837 0.196355 -11.352571 -1.994508 -2.139219 3.148123 -4.437138 0.042993 -16.539542 2.608174 -1.680760 22.455014 1.488355 6.094124 -22.172064 5.592410 -13.722250 -8.047259 1.704107 15.841847 2.258151 -0.119872 -0.303227 0.004079 0.003789 -0.004770 -0.002726 0.000245 0.003165 27.052600 -45.040204 14.425132 15.397196 48.158994 -23.148981 -41.479209 -6.162990 4.781164 62.621818 0.968555 -7.201234 22.724746 28.114380 -11.817551 10.620269 -23.452143 21.502457 -29.151463 2.958539 -0.081464 14.151847 -1.439826 1.299528 2.068126 -3.667308 7.343636 0.681283 0.533819 -1.826165 -19.374976 0.016588 -0.613746 
-0.169022 114.243729 -54.442665 4.728325 1.639068 -0.073769 0.620610 -16.636251 6.176302 -6.267712 0.916452 0.608427 -11.320771 3.127084 -0.875370 12.520012 1.462103 -2.267182 3.086633 12.643291 -3.368935 -6.725763 -1.031659 0.237818 -4.855756 -12.803172 1.274429 11.303045 2.504464 -4.763271 6.199815 -2.664281 0.140381 -10.980220 -2.024903 -2.139211 3.598422 -4.199845 -0.002696 -13.536479 2.718597 -2.401601 21.509835 1.495451 6.879968 -22.453082 5.601720 -13.545220 -9.215128 1.843496 15.650368 1.179064 -0.119614 -0.233202 0.004079 0.003789 -0.004772 -0.002728 0.000245 0.003160 24.674936 -44.981666 15.298236 13.820285 48.269442 -22.884491 -47.634740 -7.311037 5.068823 76.161629 0.723584 -8.132615 19.399940 28.120234 -11.112359 11.710929 -23.462794 21.962808 -33.173211 3.356570 0.025402 15.828118 -1.662794 1.599520 1.940020 -3.330123 7.352927 0.737462 0.533658 -1.841282 -20.174115 0.032500 -0.594344 
-0.135495 114.063522 -54.021812 5.278949 1.283619 -0.097824 0.272287 -16.434309 6.103903 -6.192927 0.905929 0.600592 -11.645619 3.099801 -0.649369 12.593817 1.609810 -2.327777 2.924714 12.978708 -3.391094 -6.800319 -1.043242 0.239774 -5.180831 -12.773865 1.146465 11.306560 2.519027 -4.701883 6.244266 -2.239756 0.083014 -10.604751 -2.062301 -2.140046 4.045151 -3.966441 -0.049548 -10.607180 2.794079 -3.115177 20.542936 1.515142 7.677907 -22.754826 5.557331 -13.351793 -10.438589 2.043195 15.451840 -0.000389 -0.116253 -0.154370 0.004079 0.003789 -0.004770 -0.002727 0.000244 0.003161 22.364889 -44.950055 16.165398 10.157596 48.600901 -21.795651 -51.677235 -8.077771 5.189629 83.603756 0.726359 -7.507785 16.150773 28.089409 -10.421415 12.701580 -23.485397 22.376562 -37.031793 3.730298 0.153945 17.413144 -1.897666 1.909182 1.787425 -2.988460 7.368978 0.808642 0.533215 -1.857370 -20.966133 0.054987 -0.579263 
-0.068439 113.973412 -53.600941 5.832787 0.927527 -0.127165 -0.064973 -16.221662 6.039479 -6.145453 0.899240 0.595626 -11.966054 3.058021 -0.405655 12.664650 1.762128 -2.406668 2.773517 13.313017 -3.408060 -6.886190 -1.056575 0.242014 -5.508780 -12.750909 1.020880 11.308941 2.532859 -4.639902 6.288943 -1.805201 0.017853 -10.225695 -2.103625 -2.137758 4.484690 -3.733484 -0.097964 -7.852860 2.842004 -3.804352 19.527207 1.518362 8.480784 -23.083922 5.472821 -13.141329 -11.702092 2.293311 15.256549 -1.182308 -0.117944 -0.074382 0.004080 0.003788 -0.004772 -0.002727 0.000244 0.003161 20.216933 -44.947539 17.003590 4.180492 49.008069 -19.937232 -53.342548 -8.395411 5.223479 83.291746 1.056808 -5.019967 13.093703 28.022038 -9.750593 13.612086 -23.530196 22.755877 -40.735402 4.079895 0.300725 18.917338 -2.141185 2.233213 1.616697 -2.646028 7.389376 0.886410 0.529496 -1.875318 -21.748022 0.078267 -0.572436 
-0.068439 113.793205 -53.390514 6.393139 0.566459 -0.167488 -0.389500 -16.011838 5.988178 -6.110233 0.894280 0.591940 -12.282786 3.011221 -0.161624 12.735614 1.913961 -2.489278 2.628278 13.648631 -3.419787 -6.984286 -1.071824 0.244543 -5.836786 -12.723966 0.894137 11.308291 2.546788 -4.585007 6.341091 -1.360292 -0.048483 -9.849795 -2.145313 -2.131515 4.919984 -3.501621 -0.151454 -5.388600 2.870728 -4.449486 18.447492 1.473105 9.285922 -23.429516 5.354142 -12.914484 -12.997303 2.583966 15.059278 -2.262393 -0.122058 -0.004350 0.004073 0.003789 -0.004770 -0.002733 0.000245 0.003161 18.327400 -44.971724 17.796924 -3.747641 49.272705 -17.215874 -52.561325 -8.246309 5.208761 76.500823 0.874930 -0.982351 10.349532 27.922676 -9.121345 14.444662 -23.586284 23.095561 -44.304568 4.406957 0.463273 20.353043 -2.396520 2.564934 1.435419 -2.302854 7.414672 0.967775 0.530170 -1.895388 -22.526365 0.098625 -0.567505 
-0.001385 113.793198 -53.180088 6.960263 0.200923 -0.206510 -0.698635 -15.786809 5.946824 -6.098764 0.892661 0.590742 -12.600280 2.965070 0.063495 12.813156 2.061772 -2.547006 2.488289 13.996224 -3.428871 -7.098048 -1.089503 0.247448 -6.167421 -12.700037 0.768526 11.309892 2.559775 -4.529874 6.397312 -0.904979 -0.115968 -9.470593 -2.190479 -2.125586 5.355673 -3.273559 -0.206116 -3.323176 2.901119 -5.036649 17.268199 1.348524 10.093424 -23.784185 5.216016 -12.683465 -14.314372 2.900347 14.869680 -3.539338 0.168524 0.257226 0.004081 0.003789 -0.004770 -0.002728 0.000245 0.003163 16.790301 -45.017247 18.531739 -13.120407 49.246361 -13.479152 -49.349988 -7.635454 5.126742 65.461558 -0.811392 3.822627 8.023322 27.801486 -8.546504 15.203854 -23.661377 23.400349 -47.756973 4.712917 0.639589 21.727865 -2.658716 2.910352 1.247233 -1.955469 7.442750 1.055796 0.527488 -1.917346 -23.301173 0.120907 -0.565552 
0.032144 113.522888 -52.548794 7.530301 -0.166077 -0.252334 -1.000421 -15.562858 5.915376 -6.098763 0.892663 0.590742 -12.900969 2.901467 0.323502 12.877861 2.214844 -2.647668 2.353985 14.342870 -3.429832 -7.218721 -1.108268 0.250488 -6.497498 -12.675425 0.642999 11.312550 2.570117 -4.475006 6.454022 -0.446428 -0.187543 -9.091848 -2.231843 -2.122567 5.790982 -3.046078 -0.262467 -1.761388 2.943677 -5.546311 15.973191 1.104679 10.901708 -24.145055 5.065144 -12.445870 -15.641972 3.233730 14.685745 -3.846048 0.168118 0.276101 0.004075 0.003789 -0.004770 -0.002731 0.000245 0.003161 15.706928 -45.079617 19.192645 -23.444585 48.817776 -8.695070 -44.037317 -6.636513 4.915750 52.761535 -4.216538 8.309332 6.238819 27.670510 -8.038665 15.898228 -23.756988 23.677404 -51.085505 4.997163 0.826730 23.050218 -2.925054 3.263175 1.055604 -1.598992 7.475404 1.144500 0.524781 -1.939268 -24.072300 0.146064 -0.561651 
